<svg width="260" height="126" viewBox="0 0 260 126" fill="none" xmlns="http://www.w3.org/2000/svg">
<path fill-rule="evenodd" clip-rule="evenodd" d="M137.014 10.3462C137.014 4.61561 142.145 0.0169678 148.64 0.0169678C155.135 0.0169678 160.346 4.54486 160.346 10.2755C160.346 16.0061 155.054 20.6047 148.64 20.6047C142.225 20.6047 137.014 16.0768 137.014 10.3462ZM139.499 10.2755C139.499 14.7326 143.588 18.3408 148.64 18.3408C153.691 18.3408 157.781 14.8034 157.781 10.3462C157.781 5.88908 153.691 2.28092 148.64 2.28092C143.669 2.28092 139.499 5.81833 139.499 10.2755ZM16.0332 105.895V108H23.8125V105.895L21.4473 105.484V100.617L21.2695 92.2226L21.3379 92.209L27.6816 107.549H30.1836L36.3496 92.1269L36.418 92.1406L36.3906 100.85V105.484L34.1074 105.895V108H41.8867V105.895L39.7129 105.484V90.623L41.8867 90.2129V88.0937H34.709L29.0488 102.49H28.9668L23.1289 88.0937H16.0332V90.2129L18.1934 90.623V105.484L16.0332 105.895ZM43.6504 105.895V108H51.1836V105.895L49.1465 105.484V93.207H43.5273V95.3262L45.7012 95.7363V105.484L43.6504 105.895ZM45.5645 86.6719V89.8574H49.1465V86.6719H45.5645ZM52.6602 105.895V108H60.0293V105.895L58.1562 105.484V97.3359C58.4661 96.8073 58.8717 96.3971 59.373 96.1055C59.8743 95.8047 60.4531 95.6543 61.1094 95.6543C61.9935 95.6543 62.6589 95.8913 63.1055 96.3652C63.5521 96.8301 63.7754 97.623 63.7754 98.7441V105.484L61.8477 105.895V108H69.2715V105.895L67.2207 105.484V98.7168C67.2207 96.7389 66.7969 95.2806 65.9492 94.3418C65.1016 93.403 63.9167 92.9336 62.3945 92.9336C61.4648 92.9336 60.6309 93.1478 59.8926 93.5762C59.1634 93.9954 58.5527 94.5879 58.0605 95.3535L57.8828 93.207H52.5508V95.3262L54.7109 95.7363V105.484L52.6602 105.895ZM70.5566 105.895V108H77.9805V105.895L76.0391 105.484V97.2402C76.3672 96.7389 76.7865 96.3516 77.2969 96.0781C77.8073 95.7956 78.377 95.6543 79.0059 95.6543C79.89 95.6543 80.5599 95.9049 81.0156 96.4062C81.4714 96.9075 81.6992 97.7233 81.6992 98.8535V105.484L79.7578 105.895V108H87.1816V105.895L85.1445 105.484V98.8809C85.1445 96.8574 84.707 95.3626 83.832 94.3965C82.957 93.4212 81.7585 92.9336 80.2363 92.9336C79.3431 92.9336 78.541 93.125 77.8301 93.5078C77.1283 93.8906 76.5312 94.4284 76.0391 95.1211V86.6719H70.4336V88.791L72.6074 89.2012V105.484L70.5566 105.895ZM90.0801 107.125C90.9186 107.9 92.0898 108.287 93.5938 108.287C94.4596 108.287 95.2435 108.091 95.9453 107.699C96.6471 107.298 97.2441 106.788 97.7363 106.168C97.7728 106.469 97.8275 106.77 97.9004 107.07C97.9824 107.371 98.069 107.681 98.1602 108H102.658V105.895L101.154 105.703C101.136 105.512 101.122 105.325 101.113 105.143V104.555V98.0332C101.113 96.4017 100.571 95.1439 99.4863 94.2598C98.4108 93.3756 96.9342 92.9336 95.0566 92.9336C93.9629 92.9336 92.9648 93.0703 92.0625 93.3437C91.1693 93.6172 90.3626 93.9954 89.6426 94.4785L89.6699 98.1289H92.2129L92.5137 96.1328C92.8236 95.9049 93.1745 95.7318 93.5664 95.6133C93.9583 95.4857 94.4095 95.4219 94.9199 95.4219C95.8131 95.4219 96.4922 95.6543 96.957 96.1191C97.431 96.584 97.668 97.2083 97.668 97.9922V99.2363H95.4121C93.2884 99.2363 91.6569 99.6693 90.5176 100.535C89.3874 101.401 88.8223 102.531 88.8223 103.926C88.8223 105.284 89.2415 106.35 90.0801 107.125ZM96.3145 105.143C95.722 105.462 95.0749 105.621 94.373 105.621C92.9603 105.621 92.2539 105.024 92.2539 103.83C92.2539 103.192 92.5137 102.636 93.0332 102.162C93.5619 101.679 94.3411 101.437 95.3711 101.437H97.668V103.912C97.3672 104.404 96.916 104.814 96.3145 105.143ZM107.607 107.986C108.528 108.187 109.517 108.287 110.574 108.287C112.561 108.287 114.038 107.863 115.004 107.016C115.97 106.168 116.453 105.083 116.453 103.762C116.453 102.577 116.038 101.624 115.209 100.904C114.38 100.184 113.003 99.6009 111.08 99.1543C109.895 98.89 109.13 98.5983 108.783 98.2793C108.437 97.9603 108.264 97.582 108.264 97.1445C108.264 96.6432 108.482 96.2285 108.92 95.9004C109.357 95.5631 109.954 95.3945 110.711 95.3945C111.632 95.3945 112.388 95.6042 112.98 96.0234L113.404 97.9785H115.865L115.77 94.2187C115.159 93.8359 114.416 93.5306 113.541 93.3027C112.675 93.0658 111.682 92.9473 110.561 92.9473C109.33 92.9473 108.291 93.1432 107.443 93.5351C106.605 93.9271 105.967 94.4557 105.529 95.1211C105.101 95.7865 104.887 96.5202 104.887 97.3223C104.887 98.498 105.301 99.4551 106.131 100.193C106.96 100.923 108.264 101.479 110.041 101.861C111.235 102.117 112.042 102.422 112.461 102.777C112.889 103.133 113.104 103.552 113.104 104.035C113.104 104.546 112.898 104.974 112.488 105.32C112.087 105.667 111.395 105.84 110.41 105.84C109.9 105.84 109.439 105.794 109.029 105.703C108.619 105.612 108.214 105.475 107.812 105.293L107.293 103.16H104.818L104.859 107.07C105.78 107.471 106.696 107.777 107.607 107.986ZM125.354 105.895V108H133.146V105.895L130.973 105.484V99.4961H138.082V96.8301H130.973V90.7598H137.932L138.15 93.2617H140.844V88.0937H125.354V90.2129L127.527 90.623V105.484L125.354 105.895ZM142.525 105.895V108H150.059V105.895L148.021 105.484V93.207H142.402V95.3262L144.576 95.7363V105.484L142.525 105.895ZM144.439 86.6719V89.8574H148.021V86.6719H144.439ZM151.535 105.895V108H158.904V105.895L157.031 105.484V97.3359C157.341 96.8073 157.747 96.3971 158.248 96.1055C158.749 95.8047 159.328 95.6543 159.984 95.6543C160.868 95.6543 161.534 95.8913 161.98 96.3652C162.427 96.8301 162.65 97.623 162.65 98.7441V105.484L160.723 105.895V108H168.146V105.895L166.096 105.484V98.7168C166.096 96.7389 165.672 95.2806 164.824 94.3418C163.977 93.403 162.792 92.9336 161.27 92.9336C160.34 92.9336 159.506 93.1478 158.768 93.5762C158.038 93.9954 157.428 94.5879 156.936 95.3535L156.758 93.207H151.426V95.3262L153.586 95.7363V105.484L151.535 105.895ZM171.072 107.125C171.911 107.9 173.082 108.287 174.586 108.287C175.452 108.287 176.236 108.091 176.938 107.699C177.639 107.298 178.236 106.788 178.729 106.168C178.765 106.469 178.82 106.77 178.893 107.07C178.975 107.371 179.061 107.681 179.152 108H183.65V105.895L182.146 105.703C182.128 105.512 182.115 105.325 182.105 105.143V104.555V98.0332C182.105 96.4017 181.563 95.1439 180.479 94.2598C179.403 93.3756 177.926 92.9336 176.049 92.9336C174.955 92.9336 173.957 93.0703 173.055 93.3437C172.161 93.6172 171.355 93.9954 170.635 94.4785L170.662 98.1289H173.205L173.506 96.1328C173.816 95.9049 174.167 95.7318 174.559 95.6133C174.951 95.4857 175.402 95.4219 175.912 95.4219C176.805 95.4219 177.484 95.6543 177.949 96.1191C178.423 96.584 178.66 97.2083 178.66 97.9922V99.2363H176.404C174.281 99.2363 172.649 99.6693 171.51 100.535C170.38 101.401 169.814 102.531 169.814 103.926C169.814 105.284 170.234 106.35 171.072 107.125ZM177.307 105.143C176.714 105.462 176.067 105.621 175.365 105.621C173.952 105.621 173.246 105.024 173.246 103.83C173.246 103.192 173.506 102.636 174.025 102.162C174.554 101.679 175.333 101.437 176.363 101.437H178.66V103.912C178.359 104.404 177.908 104.814 177.307 105.143ZM185.277 105.895V108H192.646V105.895L190.773 105.484V97.3359C191.083 96.8073 191.489 96.3971 191.99 96.1055C192.492 95.8047 193.07 95.6543 193.727 95.6543C194.611 95.6543 195.276 95.8913 195.723 96.3652C196.169 96.8301 196.393 97.623 196.393 98.7441V105.484L194.465 105.895V108H201.889V105.895L199.838 105.484V98.7168C199.838 96.7389 199.414 95.2806 198.566 94.3418C197.719 93.403 196.534 92.9336 195.012 92.9336C194.082 92.9336 193.248 93.1478 192.51 93.5762C191.781 93.9954 191.17 94.5879 190.678 95.3535L190.5 93.207H185.168V95.3262L187.328 95.7363V105.484L185.277 105.895ZM208.633 108.154C207.854 108.006 207.146 107.736 206.51 107.344C205.498 106.706 204.714 105.831 204.158 104.719C203.611 103.598 203.338 102.308 203.338 100.85V100.371C203.338 98.9401 203.611 97.6641 204.158 96.543C204.705 95.4219 205.484 94.5423 206.496 93.9043C207.517 93.2572 208.72 92.9336 210.105 92.9336C211.372 92.9336 212.475 93.1387 213.414 93.5488C214.353 93.9499 215.123 94.4512 215.725 95.0527L215.738 99.0039H213.113L212.607 96.3926C212.352 96.1283 212.029 95.9186 211.637 95.7637C211.245 95.5996 210.816 95.5176 210.352 95.5176C209.212 95.5176 208.333 95.9687 207.713 96.8711C207.093 97.7643 206.783 98.931 206.783 100.371V100.85C206.783 102.417 207.093 103.607 207.713 104.418C208.342 105.229 209.148 105.635 210.133 105.635C210.917 105.635 211.559 105.421 212.061 104.992C212.562 104.564 212.89 103.971 213.045 103.215H216.025L216.066 103.297C215.902 104.746 215.342 105.94 214.385 106.879C213.617 107.639 212.539 108.092 211.149 108.236L211.035 108.779C211.646 108.88 212.152 109.112 212.553 109.477C212.954 109.841 213.154 110.374 213.154 111.076C213.154 112.006 212.749 112.749 211.938 113.305C211.126 113.861 209.969 114.139 208.465 114.139L208.369 112.252C208.962 112.252 209.436 112.152 209.791 111.951C210.146 111.76 210.324 111.468 210.324 111.076C210.324 110.666 210.16 110.379 209.832 110.215C209.513 110.06 208.984 109.96 208.246 109.914L208.633 108.154ZM219.498 107.125C220.337 107.9 221.508 108.287 223.012 108.287C223.878 108.287 224.661 108.091 225.363 107.699C226.065 107.298 226.662 106.788 227.154 106.168C227.191 106.469 227.245 106.77 227.318 107.07C227.4 107.371 227.487 107.681 227.578 108H232.076V105.895L230.572 105.703C230.554 105.512 230.54 105.325 230.531 105.143V104.555V98.0332C230.531 96.4017 229.989 95.1439 228.904 94.2598C227.829 93.3756 226.352 92.9336 224.475 92.9336C223.381 92.9336 222.383 93.0703 221.48 93.3437C220.587 93.6172 219.781 93.9954 219.061 94.4785L219.088 98.1289H221.631L221.932 96.1328C222.242 95.9049 222.592 95.7318 222.984 95.6133C223.376 95.4857 223.827 95.4219 224.338 95.4219C225.231 95.4219 225.91 95.6543 226.375 96.1191C226.849 96.584 227.086 97.2083 227.086 97.9922V99.2363H224.83C222.706 99.2363 221.075 99.6693 219.936 100.535C218.805 101.401 218.24 102.531 218.24 103.926C218.24 105.284 218.66 106.35 219.498 107.125ZM225.732 105.143C225.14 105.462 224.493 105.621 223.791 105.621C222.378 105.621 221.672 105.024 221.672 103.83C221.672 103.192 221.932 102.636 222.451 102.162C222.98 101.679 223.759 101.437 224.789 101.437H227.086V103.912C226.785 104.404 226.334 104.814 225.732 105.143ZM237.025 107.986C237.946 108.187 238.935 108.287 239.992 108.287C241.979 108.287 243.456 107.863 244.422 107.016C245.388 106.168 245.871 105.083 245.871 103.762C245.871 102.577 245.456 101.624 244.627 100.904C243.798 100.184 242.421 99.6009 240.498 99.1543C239.313 98.89 238.548 98.5983 238.201 98.2793C237.855 97.9603 237.682 97.582 237.682 97.1445C237.682 96.6432 237.9 96.2285 238.338 95.9004C238.775 95.5631 239.372 95.3945 240.129 95.3945C241.049 95.3945 241.806 95.6042 242.398 96.0234L242.822 97.9785H245.283L245.188 94.2187C244.577 93.8359 243.834 93.5306 242.959 93.3027C242.093 93.0658 241.1 92.9473 239.979 92.9473C238.748 92.9473 237.709 93.1432 236.861 93.5351C236.023 93.9271 235.385 94.4557 234.947 95.1211C234.519 95.7865 234.305 96.5202 234.305 97.3223C234.305 98.498 234.719 99.4551 235.549 100.193C236.378 100.923 237.682 101.479 239.459 101.861C240.653 102.117 241.46 102.422 241.879 102.777C242.307 103.133 242.521 103.552 242.521 104.035C242.521 104.546 242.316 104.974 241.906 105.32C241.505 105.667 240.812 105.84 239.828 105.84C239.318 105.84 238.857 105.794 238.447 105.703C238.037 105.612 237.632 105.475 237.23 105.293L236.711 103.16H234.236L234.277 107.07C235.198 107.471 236.114 107.777 237.025 107.986ZM152.272 11.7283L152.271 11.7278C152.234 11.5997 152.2 11.4856 152.088 11.3367C152.069 11.3033 152.05 11.266 152.03 11.2265C151.965 11.0989 151.889 10.9496 151.767 10.8415C151.687 10.7707 151.627 10.7 151.567 10.6292C151.506 10.5585 151.446 10.4877 151.366 10.417C151.206 10.2755 151.045 10.134 150.805 10.0632C150.682 9.95514 150.513 9.88834 150.368 9.83128C150.324 9.81365 150.281 9.79695 150.244 9.78025C150.123 9.74487 150.023 9.69181 149.923 9.63875C149.823 9.58569 149.722 9.53263 149.602 9.49725C149.362 9.4265 149.121 9.35575 148.961 9.28501C148.88 9.28501 148.72 9.21426 148.64 9.14351C148.6 9.10814 148.54 9.09045 148.48 9.07276C148.419 9.05507 148.359 9.03739 148.319 9.00201C148.279 8.96664 148.219 8.94895 148.159 8.93127C148.099 8.91358 148.039 8.89589 147.998 8.86052L147.758 8.64827C147.678 8.57752 147.598 8.50677 147.598 8.36528C147.517 8.29453 147.517 8.15303 147.517 8.08228V7.72854C147.517 7.69317 147.537 7.64011 147.557 7.58705C147.578 7.53398 147.598 7.48092 147.598 7.44555C147.638 7.41017 147.658 7.35711 147.678 7.30404C147.698 7.25098 147.718 7.19793 147.758 7.16256L147.998 6.95031C148.079 6.87956 148.239 6.80881 148.399 6.80881C148.56 6.73807 148.64 6.73806 148.8 6.73806H149.041H149.281C149.442 6.73806 149.522 6.73807 149.682 6.80881C149.776 6.80881 149.87 6.83309 149.948 6.8532C150.003 6.86742 150.05 6.87956 150.083 6.87956C150.123 6.87956 150.183 6.89725 150.244 6.91493C150.304 6.93262 150.364 6.95031 150.404 6.95031C150.498 6.95031 150.564 6.97459 150.619 6.9947C150.658 7.00892 150.691 7.02106 150.725 7.02106L151.126 7.16256L151.206 6.73806L151.366 5.60609V5.3231L151.045 5.25235C151.005 5.25235 150.945 5.23466 150.885 5.21697C150.825 5.19929 150.765 5.1816 150.725 5.1816C150.691 5.1816 150.658 5.16946 150.619 5.15524C150.564 5.13513 150.498 5.11085 150.404 5.11085C150.371 5.11085 150.324 5.09871 150.269 5.08449C150.191 5.06438 150.097 5.0401 150.003 5.0401C149.923 5.0401 149.863 5.02242 149.803 5.00473C149.742 4.98704 149.682 4.96936 149.602 4.96936H149.522V3.97888V3.62514H149.121H147.998H147.598V3.97888V5.0401H147.517C147.277 5.11085 147.036 5.1816 146.796 5.3231C146.555 5.39385 146.395 5.53534 146.234 5.67684C146.074 5.81834 145.914 5.95983 145.753 6.17208C145.593 6.31358 145.513 6.52582 145.433 6.73806L145.192 7.3748C145.112 7.58705 145.112 7.87004 145.112 8.08228C145.112 8.29453 145.112 8.43603 145.192 8.64827C145.216 8.71143 145.233 8.76833 145.249 8.82269L145.249 8.82317C145.287 8.95128 145.32 9.06536 145.433 9.21426C145.473 9.28501 145.533 9.37344 145.593 9.46188C145.653 9.55031 145.713 9.63875 145.753 9.7095C145.834 9.78025 145.894 9.85099 145.954 9.92174C146.014 9.99249 146.074 10.0632 146.154 10.134C146.315 10.2755 146.475 10.417 146.716 10.4877C146.838 10.5958 147.007 10.6626 147.152 10.7197L147.152 10.7198C147.197 10.7374 147.239 10.7541 147.277 10.7707C147.445 10.82 147.612 10.9038 147.753 10.9739L147.753 10.9742C147.814 11.0045 147.87 11.0323 147.918 11.0537C148.159 11.1245 148.399 11.1952 148.56 11.266C148.64 11.266 148.8 11.3367 148.88 11.4075C148.921 11.4428 148.981 11.4605 149.041 11.4782C149.101 11.4959 149.161 11.5136 149.201 11.549C149.281 11.6197 149.362 11.6905 149.442 11.6905L149.682 11.9027C149.732 11.9464 149.751 11.9901 149.777 12.0506L149.777 12.0508L149.777 12.0513L149.777 12.0515C149.793 12.0886 149.812 12.1321 149.843 12.1857C149.843 12.215 149.856 12.2564 149.872 12.3048L149.872 12.305C149.895 12.3737 149.923 12.4565 149.923 12.5394V12.8932C149.923 12.9639 149.843 13.1054 149.762 13.1762L149.522 13.3884C149.442 13.4592 149.362 13.5299 149.201 13.6007C149.161 13.636 149.101 13.6537 149.041 13.6714C148.981 13.6891 148.921 13.7068 148.88 13.7422C148.847 13.7422 148.8 13.7543 148.745 13.7685C148.667 13.7886 148.573 13.8129 148.48 13.8129H148.159H147.838H147.437C147.343 13.8129 147.249 13.7886 147.171 13.7685C147.116 13.7543 147.069 13.7422 147.036 13.7422C146.876 13.7422 146.716 13.6714 146.555 13.6007C146.475 13.5653 146.395 13.5476 146.315 13.5299C146.234 13.5122 146.154 13.4945 146.074 13.4592C146.034 13.4592 145.994 13.4415 145.954 13.4238C145.914 13.4061 145.874 13.3884 145.834 13.3884C145.793 13.3884 145.753 13.3707 145.713 13.353C145.673 13.3354 145.633 13.3177 145.593 13.3177L145.112 13.1054L145.032 13.6007L144.871 14.8741V15.0864L145.112 15.1571C145.396 15.0944 145.554 15.1428 145.754 15.2039C145.78 15.2117 145.806 15.2198 145.834 15.2279C145.994 15.2986 146.234 15.3694 146.395 15.3694C146.482 15.4077 146.592 15.4252 146.713 15.4445C146.816 15.4609 146.926 15.4784 147.036 15.5109C147.277 15.5816 147.437 15.5816 147.678 15.5816H147.838V16.6428V16.9966H148.239H149.362H149.762V16.6428V15.5109H149.843C150.083 15.4401 150.324 15.3694 150.564 15.2279C150.733 15.1782 150.862 15.0938 151.007 14.9989L151.008 14.9988C151.069 14.9585 151.134 14.9163 151.206 14.8741L151.206 14.874C151.366 14.7326 151.526 14.5911 151.687 14.3789C151.784 14.2932 151.852 14.1816 151.926 14.0597C151.974 13.9804 152.024 13.8966 152.088 13.8129L152.328 13.1762C152.408 12.9639 152.408 12.7517 152.408 12.4687C152.408 12.2564 152.408 12.1149 152.328 11.9027C152.304 11.8395 152.288 11.7826 152.272 11.7283ZM141.183 21.7367C141.744 21.383 142.626 21.4537 143.027 21.9489C143.428 22.4442 143.348 23.2224 142.787 23.5762L129.236 33.0564C128.915 33.2687 128.354 33.3394 127.953 33.1979L111.115 27.0428L93.7156 38.0088C93.4751 38.1503 93.2345 38.2211 92.994 38.2211C92.5931 38.2211 92.1921 38.0796 91.9516 37.7258C91.5507 37.2306 91.7111 36.5231 92.2723 36.1694L110.233 24.8496C110.554 24.6374 111.035 24.5666 111.436 24.7081L128.194 30.8633L141.183 21.7367ZM161.79 60.7191H155.856V27.9626C155.856 27.3259 155.295 26.8306 154.573 26.8306H142.787C142.065 26.8306 141.504 27.3259 141.504 27.9626V60.7191H137.174V39.2823C137.174 38.6456 136.613 38.1504 135.891 38.1504H124.024C123.303 38.1504 122.741 38.6456 122.741 39.2823V60.7191H118.411V37.5844C118.411 36.9476 117.85 36.4524 117.129 36.4524H105.342C104.62 36.4524 104.059 36.9476 104.059 37.5844V60.7191H99.7292V44.2347C99.7292 43.598 99.1679 43.1027 98.4463 43.1027H86.5794C85.8578 43.1027 85.2965 43.598 85.2965 44.2347V60.7191H79.2829C78.5613 60.7191 78 61.2143 78 61.8511C78 62.4878 78.5613 62.983 79.2829 62.983H86.4992H98.2859H105.342H117.129H124.024H135.811H142.706H154.493H161.709C162.431 62.983 162.992 62.4878 162.992 61.8511C163.073 61.2143 162.511 60.7191 161.79 60.7191ZM97.0832 60.7191H87.8623V45.3667H97.0832V60.7191ZM115.846 60.7191H106.625V38.7163H115.846V60.7191ZM134.528 60.7191H125.307V40.4143H134.528V60.7191ZM153.29 60.7191H144.07V29.0946H153.29V60.7191ZM0 126H259.008V123H0V126Z" fill="#6025BF"/>
</svg>
